<svg viewBox="0 0 240 180" xmlns="http://www.w3.org/2000/svg">
    <!-- 背景云朵 -->
    <ellipse cx="53" cy="23" rx="25" ry="10" fill="#EEF2FF" opacity="0.6"/>
    <ellipse cx="187" cy="35" rx="35" ry="13" fill="#EEF2FF" opacity="0.7"/>
    <ellipse cx="120" cy="12" rx="20" ry="8" fill="#EEF2FF" opacity="0.5"/>

    <!-- 放大镜手柄 -->
    <path d="M154 112L181 138C184 141 189 141 192 138C195 135 195 130 192 127L166 101" fill="none" stroke="#6366F1" stroke-width="8" stroke-linecap="round"/>

    <!-- 放大镜镜片 -->
    <circle cx="120" cy="80" r="50" fill="#EEF2FF" stroke="#6366F1" stroke-width="8"/>

    <!-- 放大镜中的问号 -->
    <path d="M120 70C120 64 116 60 110 60C104 60 100 64 100 70L106 70C106 68 108 66 110 66C112 66 114 68 114 70C114 72 113 73 112 74L108 78C107 79 106 81 106 84L106 85L112 85L112 84C112 83 112 82 113 81L118 76C120 75 120 72 120 70Z" fill="#8B5CF6"/>
    <circle cx="109" cy="95" r="3" fill="#8B5CF6"/>

    <!-- 漂浮的元素 -->
    <rect x="70" y="40" width="20" height="6" rx="3" fill="#BFDBFE" opacity="0.8"/>
    <rect x="75" y="50" width="14" height="4" rx="2" fill="#BFDBFE" opacity="0.6"/>
    <rect x="150" y="50" width="16" height="6" rx="3" fill="#BFDBFE" opacity="0.8"/>
    <rect x="145" y="60" width="12" height="4" rx="2" fill="#BFDBFE" opacity="0.6"/>

    <!-- 底部装饰 -->
    <path d="M40 160C70 145 170 145 200 160" stroke="#C7D2FE" stroke-width="2" stroke-dasharray="4 2" fill="none"/>

    <!-- 底部文字说明 -->
    <text x="120" y="175" font-family="sans-serif" font-size="10" fill="#6366F1" text-anchor="middle">未找到相关结果</text>
</svg>