<svg viewBox="0 0 240 180" xmlns="http://www.w3.org/2000/svg">
    <!-- 背景装饰 -->
    <ellipse cx="33" cy="30" rx="20" ry="8" fill="#EEF2FF" opacity="0.6"/>
    <ellipse cx="197" cy="42" rx="30" ry="10" fill="#EEF2FF" opacity="0.7"/>
    <ellipse cx="130" cy="15" rx="15" ry="6" fill="#EEF2FF" opacity="0.5"/>

    <!-- 筛选漏斗主体 -->
    <path d="M65 45H175L135 95V135L105 125V95L65 45Z" fill="#EEF2FF" stroke="#6366F1" stroke-width="4"/>

    <!-- 筛选标签 - 悬浮在漏斗外 -->
    <rect x="55" y="65" width="30" height="12" rx="6" fill="white" stroke="#8B5CF6" stroke-width="2"/>
    <rect x="155" y="75" width="35" height="12" rx="6" fill="white" stroke="#8B5CF6" stroke-width="2"/>
    <rect x="80" y="90" width="25" height="12" rx="6" fill="white" stroke="#8B5CF6" stroke-width="2"/>

    <!-- 漏斗内部线条 -->
    <line x1="90" y1="55" x2="150" y2="55" stroke="#C7D2FE" stroke-width="2" stroke-dasharray="3 2"/>
    <line x1="80" y1="65" x2="160" y2="65" stroke="#C7D2FE" stroke-width="2" stroke-dasharray="3 2"/>
    <line x1="75" y1="75" x2="165" y2="75" stroke="#C7D2FE" stroke-width="2" stroke-dasharray="3 2"/>

    <!-- X标记表示无结果 -->
    <circle cx="120" cy="115" r="12" fill="#F1F5F9"/>
    <path d="M114 109L126 121M126 109L114 121" stroke="#F43F5E" stroke-width="3" stroke-linecap="round"/>

    <!-- 底部装饰 -->
    <path d="M40 160C70 145 170 145 200 160" stroke="#C7D2FE" stroke-width="2" stroke-dasharray="4 2" fill="none"/>

    <!-- 底部文字说明 -->
    <text x="120" y="175" font-family="sans-serif" font-size="10" fill="#6366F1" text-anchor="middle">无符合条件的结果</text>
</svg>